# AST/ASF file generated using VICON BodyLanguage
# -----------------------------------------------
:version 1.10
:name VICON
:units
  mass 1.0
  length 0.45
  angle deg
:documentation
   .ast/.asf automatically generated from VICON data using
   VICON BodyBuilder and BodyLanguage model FoxedUp or BRILLIANT.MOD
:root
   order TX TY TZ RX RY RZ
   axis XYZ
   position 0 0 0  
   orientation 0 0 0 
:bonedata
  begin
     id 1 
     name lhipjoint
     direction 0.62366 -0.717238 0.310833 
     length 2.53602 
     axis 0 0 0  XYZ
  end
  begin
     id 2 
     name lfemur
     direction 0.34202 -0.939693 0  
     length 7.40817  
     axis 0 0 20  XYZ
    dof rx ry rz
    limits (-160.0 20.0)
           (-70.0 70.0)
           (-60.0 70.0)
  end
  begin
     id 3 
     name ltibia
     direction 0.34202 -0.939693 0   
     length 7.7045   
     axis 0 0 20   XYZ
    dof rx
    limits (-10.0 170.0)
  end
  begin
     id 4 
     name lfoot
     direction 0.0673888 -0.185149 0.980397   
     length 2.09456   
     axis -90 7.62852e-016 20   XYZ
    dof rx rz
    limits (-45.0 90.0)
           (-70.0 20.0)
  end
  begin
     id 5 
     name ltoes
     direction 1.53575e-011 -4.21994e-011 1   
     length 1.05543   
     axis -90 7.62852e-016 20   XYZ
    dof rx
    limits (-90.0 20.0)
  end
  begin
     id 6 
     name rhipjoint
     direction -0.489018 -0.800347 0.346851   
     length 2.27268  
     axis 0 0 0  XYZ 
  end
  begin
     id 7 
     name rfemur
     direction -0.34202 -0.939693 0   
     length 7.55487   
     axis 0 0 -20   XYZ
    dof rx ry rz
    limits (-160.0 20.0)
           (-70.0 70.0)
           (-70.0 60.0)
  end
  begin
     id 8 
     name rtibia
     direction -0.34202 -0.939693 0   
     length 7.78969   
     axis 0 0 -20   XYZ
    dof rx
    limits (-10.0 170.0)
 end
 begin
     id 9 
     name rfoot
     direction -0.0859318 -0.236096 0.967923   
     length 2.19143  
     axis -90 -7.62852e-016 -20   XYZ
    dof rx rz
    limits (-45.0 90.0)
           (-20.0 70.0)
  end
  begin
     id 10 
     name rtoes
     direction -1.53538e-011 -4.21989e-011 1   
     length 1.09845   
     axis -90 -7.62852e-016 -20   XYZ
    dof rx
    limits (-90.0 20.0)
  end
  begin
     id 11 
     name lowerback
     direction -0.00762546 0.998978 -0.0445553   
     length 1.98161   
     axis 0 0 0   XYZ
    dof rx ry rz
    limits (-20.0 45.0)
           (-30.0 30.0)
           (-30.0 30.0)
  end
  begin
     id 12 
     name upperback
     direction 0.0422361 0.998867 -0.0219156   
     length 1.97558   
     axis 0 0 0   XYZ
    dof rx ry rz
    limits (-20.0 45.0)
           (-30.0 30.0)
           (-30.0 30.0)
  end
  begin
     id 13 
     name thorax
     direction 0.0442465 0.999021 7.47603e-005   
     length 1.97799   
     axis 0 0 0   XYZ
    dof rx ry rz
    limits (-20.0 45.0)
           (-30.0 30.0)
           (-30.0 30.0)
  end
  begin
     id 14 
     name lowerneck
     direction 0.00312169 0.984641 0.174564   
     length 1.78995   
     axis 0 0 0   XYZ
    dof rx ry rz
    limits (-20.0 45.0)
           (-30.0 30.0)
           (-30.0 30.0)
  end
  begin
     id 15 
     name upperneck
     direction -0.0383028 0.985255 -0.166749   
     length 1.83053   
     axis 0 0 0   XYZ
    dof rx ry rz
    limits (-20.0 45.0)
           (-30.0 30.0)
           (-30.0 30.0)
  end
  begin
     id 16
     name head
     direction -0.0129546 0.997059 -0.0755386  
     length 1.84088  
     axis 0 0 0   XYZ
    dof rx ry rz
    limits (-20.0 45.0)
           (-30.0 30.0)
           (-30.0 30.0)
  end
  begin
     id 17 
     name lclavicle
     direction 0.912857 0.370519 -0.171488  
     length 3.51279  
     axis 0 0 0   XYZ
    dof ry rz
    limits (-20.0 10.0)
           (0.0 20.0)
  end
  begin
     id 18 
     name lhumerus
     direction 1 -4.48962e-011 3.64361e-027   
     length 4.95663   
     axis 180 -30 -90   XYZ
    dof rx ry rz
    limits (-60.0 90.0)
           (-90.0 90.0)
           (-90.0 90.0)
  end
  begin
     id 19
     name lradius
     direction 1 -4.48974e-011 5.97202e-027   
     length 3.38177   
     axis 180 -30 -90   XYZ
    dof rx
    limits (-10.0 170.0)
  end
  begin
     id 20
     name lwrist
     direction 1 -4.4896e-011 9.83288e-027   
     length 1.69088   
     axis -9.31221e-015 90 90   XYZ
    dof ry
    limits (-180.0 0.0)
 end
  begin
     id 21 
     name lhand
     direction 1 -4.4902e-011 1.96551e-026   
     length 0.662909   
     axis -1.25475e-014 90 90   XYZ
    dof rx rz
    limits (-90.0 90.0)
           (-45.0 45.0)
  end
  begin
     id 22 
     name lfingers
     direction 1 -4.48971e-011 3.93277e-026   
     length 0.534454   
     axis -2.50945e-014 90 90   XYZ
    dof rx
    limits (0.0 90.0)
  end
  begin
     id 23
     name lthumb
     direction 0.707107 -6.34933e-011 0.707107   
     length 0.767373   
     axis -90 45 -4.80359e-014   XYZ
    dof rx rz
    limits (-45.0 45.0)
           (-45.0 45.0)
  end
  begin
     id 24 
     name rclavicle
     direction -0.900919 0.395364 -0.178976   
     length 3.40627  
     axis 0 0 0   XYZ 
    dof ry rz
    limits (-10.0 20.0)
           (-20.0 0.0)
  end
  begin
     id 25 
     name rhumerus
     direction -1 -4.48969e-011 1.03875e-027  
     length 5.08365   
     axis 180 30 90   XYZ
    dof rx ry rz
    limits (-90.0 60.0)
           (-90.0 90.0)
           (-90.0 90.0)
  end
  begin
     id 26 
     name rradius
     direction -1 -4.48951e-011 5.02733e-027   
     length 3.35984   
     axis 180 30 90   XYZ
    dof rx
    limits (-10.0 170.0)
  end
  begin
     id 27 
     name rwrist
     direction -1 -4.49011e-011 9.82828e-027   
     length 1.67992   
     axis -9.31221e-015 -90 -90   XYZ
    dof ry
    limits (-180.0 0.0)
  end
  begin
     id 28
     name rhand
     direction -1 -4.48894e-011 1.96774e-026   
     length 0.820764   
     axis -1.25475e-014 -90 -90   XYZ
    dof rx rz
    limits (-90.0 90.0)
           (-45.0 45.0)
  end
  begin
     id 29
     name rfingers
     direction -1 -4.49095e-011 3.92833e-026   
     length 0.661721   
     axis -2.50945e-014 -90 -90   XYZ
    dof rx
    limits (0.0 90.0)
  end
  begin
     id 30
     name rthumb
     direction -0.707107 -6.34881e-011 0.707107   
     length 0.950103   
     axis -90 -45 4.80359e-014   XYZ
    dof rx rz
    limits (-45.0 45.0)
           (-45.0 45.0)
  end
:hierarchy
  begin
    root lhipjoint rhipjoint lowerback
    lhipjoint lfemur
    lfemur ltibia
    ltibia lfoot
    lfoot ltoes
    rhipjoint rfemur
    rfemur rtibia
    rtibia rfoot
    rfoot rtoes
    lowerback upperback
    upperback thorax
    thorax lowerneck lclavicle rclavicle
    lowerneck upperneck
    upperneck head
    lclavicle lhumerus
    lhumerus lradius
    lradius lwrist
    lwrist lhand lthumb
    lhand lfingers
    rclavicle rhumerus
    rhumerus rradius
    rradius rwrist
    rwrist rhand rthumb
    rhand rfingers
  end

#!OML:ASF I:\golf\golf\golf 2\Subject 1\2002-09-07\Subject1.ASF
:FULLY-SPECIFIED
:DEGREES
145
root 0.72843 18.0536 -8.4476 9.06091 0.453746 -4.88755
lowerback -0.795486 1.14302 -3.19925
upperback 2.17594 1.51199 3.77818
thorax 2.50656 0.649976 5.75991
lowerneck -14.4718 0.671757 0.709639
upperneck 40.76 3.47308 -6.08241
head 17.6315 0.707337 -2.27692
rclavicle 5.06901e-015 -1.27222e-014
rhumerus -23.1683 4.62716 -85.7923
rradius 28.1476
rwrist -11.4783
rhand -30.9913 19.9718
rfingers 7.12502
rthumb -4.27478 -9.96507
lclavicle 5.06901e-015 -1.27222e-014
lhumerus -31.2034 -20.876 99.6258
lradius 37.6194
lwrist 7.59963
lhand -6.7158 29.5664
lfingers 7.12502
lthumb 19.1441 58.6442
rfemur -33.4062 -9.27928 23.5136
rtibia 25.8689
rfoot -5.00541 -10.8414
rtoes -1.1374
lfemur -9.83394 5.59845 -18.8583
ltibia 22.7472
lfoot -17.6267 0.21227
ltoes -2.45102
146
root 0.721677 18.059 -8.41417 9.1884 0.568121 -4.86706
lowerback -0.914931 1.10496 -3.27408
upperback 2.31307 1.46134 3.85014
thorax 2.71925 0.613593 5.88378
lowerneck -14.549 0.701522 0.581117
upperneck 40.6527 3.56339 -6.09555
head 17.5948 0.722227 -2.23821
rclavicle 8.94531e-015 7.15625e-015
rhumerus -22.9229 5.07073 -85.7544
rradius 28.3213
rwrist -11.771
rhand -30.755 19.7049
rfingers 7.12502
rthumb -4.04658 -10.2364
lclavicle 8.94531e-015 7.15625e-015
lhumerus -31.2001 -21.2051 99.8834
lradius 37.7606
lwrist 7.95446
lhand -2.39541 35.6879
lfingers 7.12502
lthumb 23.2941 64.2987
rfemur -33.2862 -9.09739 23.4154
rtibia 24.4367
rfoot -4.78053 -10.996
rtoes -0.77872
lfemur -9.7205 5.62151 -18.8446
ltibia 22.4039
lfoot -17.5351 0.119538
ltoes -2.75037
147
root 0.710413 18.063 -8.38139 9.33081 0.641955 -4.83766
lowerback -0.972635 1.07205 -3.39528
upperback 2.41407 1.41844 3.91532
thorax 2.85836 0.582541 6.02487
lowerneck -14.6216 0.74527 0.476961
upperneck 40.5744 3.6818 -6.13905
head 17.577 0.747914 -2.21424
rclavicle -7.05686e-015 -3.49861e-014
rhumerus -22.7191 5.48641 -85.7299
rradius 28.4953
rwrist -11.9222
rhand -30.4244 19.5103
rfingers 7.12502
rthumb -3.72731 -10.4368
lclavicle -7.05686e-015 -3.49861e-014
lhumerus -31.0381 -21.238 99.8825
lradius 37.806
lwrist 7.41941
lhand -7.00775 28.6535
lfingers 7.12502
lthumb 18.8634 57.7589
rfemur -33.1236 -8.68379 23.2247
rtibia 22.9822
rfoot -4.49609 -11.2542
rtoes -0.823444
lfemur -9.59187 5.65366 -18.8139
ltibia 22.0654
lfoot -17.4524 -0.0995412
ltoes -2.03967
148
root 0.70186 18.0666 -8.34572 9.4502 0.684053 -4.8039
lowerback -0.785596 1.08082 -3.40058
upperback 2.3746 1.42794 3.89712
thorax 2.7108 0.592405 6.00294
lowerneck -14.6015 0.749177 0.443082
upperneck 40.5891 3.70152 -6.13924
head 17.581 0.751169 -2.20492
rclavicle -1.05356e-014 -4.77083e-015
rhumerus -22.7073 5.71046 -85.788
rradius 28.5577
rwrist -11.9426
rhand -30.2713 19.4986
rfingers 7.12502
rthumb -3.57947 -10.4511
lclavicle -1.05356e-014 -4.77083e-015
lhumerus -31.1293 -21.5506 99.9802
lradius 37.8381
lwrist 7.53517
lhand -6.95749 28.2529
lfingers 7.12502
lthumb 18.9117 57.3535
rfemur -32.8835 -8.25605 22.9974
rtibia 21.5303
rfoot -3.9973 -11.4354
rtoes -2.9214
lfemur -9.44084 5.63979 -18.8116
ltibia 21.7469
lfoot -17.3424 -0.192729
ltoes -1.4349
149
root 0.694646 18.0693 -8.31151 9.58045 0.757114 -4.83661
lowerback -0.562113 1.14083 -3.19457
upperback 2.25342 1.50397 3.78923
thorax 2.45606 0.645659 5.76395
lowerneck -14.4327 0.683517 0.529713
upperneck 40.6222 3.54791 -6.08308
head 17.5441 0.713376 -2.22334
rclavicle -7.7526e-015 -3.97569e-015
rhumerus -22.8406 5.53797 -85.929
rradius 28.577
rwrist -11.889
rhand -30.2077 19.5382
rfingers 7.12502
rthumb -3.51805 -10.4125
lclavicle -7.7526e-015 -3.97569e-015
lhumerus -31.5425 -22.1709 100.133
lradius 38.0061
lwrist 8.2023
lhand -2.22764 34.1813
lfingers 7.12502
lthumb 23.455 62.7716
rfemur -32.6463 -7.74304 22.79
rtibia 20.1476
rfoot -3.74239 -11.7864
rtoes -3.77534
lfemur -9.31889 5.58748 -18.7464
ltibia 21.4102
lfoot -17.1406 -0.217326
ltoes -1.21406
150
root 0.681968 18.0729 -8.27854 9.71243 0.91527 -4.86405
lowerback -0.363301 1.17623 -3.06514
upperback 2.16603 1.54858 3.71229
thorax 2.25276 0.678458 5.60237
lowerneck -14.3192 0.623466 0.633716
upperneck 40.6656 3.4154 -6.06448
head 17.5309 0.680861 -2.25906
rclavicle -9.64106e-015 -1.66979e-014
rhumerus -22.9156 5.34569 -86.0485
rradius 28.65
rwrist -11.8976
rhand -30.1075 19.3842
rfingers 7.12502
rthumb -3.42128 -10.5681
lclavicle -9.64106e-015 -1.66979e-014
lhumerus -31.8321 -22.4715 100.105
lradius 38.2866
lwrist 7.82459
lhand -6.69224 27.5369
lfingers 7.12502
lthumb 19.1668 56.6124
rfemur -32.4122 -6.99246 22.4529
rtibia 18.8668
rfoot -3.92691 -12.4062
rtoes -1.61753
lfemur -9.19832 5.53809 -18.6406
ltibia 21.0589
lfoot -16.9611 -0.359363
ltoes -0.947799
151
root 0.669074 18.075 -8.24019 9.81594 1.01785 -4.72321
lowerback -0.240533 1.18467 -3.1383
upperback 2.20992 1.56 3.63298
thorax 2.22788 0.683298 5.55853
lowerneck -14.4241 0.624513 0.676278
upperneck 40.7023 3.41785 -6.0848
head 17.5814 0.684482 -2.27797
rclavicle 1.59028e-015 -2.24627e-014
rhumerus -22.777 5.49939 -86.1515
rradius 28.7564
rwrist -12.133
rhand -30.0276 19.1444
rfingers 7.12502
rthumb -3.34409 -10.8091
lclavicle 1.59028e-015 -2.24627e-014
lhumerus -31.7637 -22.6849 100.03
lradius 38.3459
lwrist 7.56442
lhand -7.72478 25.1341
lfingers 7.12502
lthumb 18.1736 54.3051
rfemur -32.1823 -6.40067 22.006
rtibia 17.693
rfoot -3.82164 -12.8258
rtoes -1.34433
lfemur -9.02784 5.5681 -18.7326
ltibia 20.7078
lfoot -16.8643 -0.457239
ltoes -1.21893
